<svg width="200" height="200" viewBox="0 0 200 200" fill="none" xmlns="http://www.w3.org/2000/svg">
<g clip-path="url(#clip0_75_2091)">
<rect width="200" height="200" rx="32" fill="#F5EFE0"/>
<path d="M94.1613 55.0618C95.8944 56.1627 96.9442 58.0733 96.9442 60.1265L96.9442 76.5672C96.9442 80.2486 93.6596 83.0618 90.022 82.4959L53.3398 76.7898C50.4173 76.3352 48.2621 73.8188 48.2621 70.8611L48.2621 36.8262C48.2621 32.0939 53.4846 29.2242 57.4792 31.7615L94.1613 55.0618Z" fill="#111111"/>
<path d="M76.8868 137.059C73.1944 140.752 67.2078 140.752 63.5153 137.059C59.8229 133.367 59.8229 127.38 63.5153 123.688L80.1591 107.044C81.4188 105.784 80.5266 103.63 78.7452 103.63L58.7116 103.63C57.5065 103.63 56.3508 104.109 55.4987 104.961L43.458 117.002C36.0731 124.387 36.0731 136.36 43.458 143.745L56.8295 157.116C64.2145 164.501 76.1877 164.501 83.5726 157.116L95.6133 145.076C96.4654 144.224 96.9441 143.068 96.9441 141.863L96.9441 121.829C96.9441 120.048 94.7903 119.156 93.5306 120.415L76.8868 137.059Z" fill="#111111"/>
<path d="M137.059 76.887C140.751 73.1945 140.751 67.2079 137.059 63.5154C133.366 59.823 127.38 59.823 123.687 63.5154L107.043 80.1593C105.784 81.419 103.63 80.5268 103.63 78.7454L103.63 58.7117C103.63 57.5066 104.109 56.3509 104.961 55.4988L117.001 43.458C124.386 36.0731 136.36 36.0731 143.745 43.458L157.116 56.8296C164.501 64.2145 164.501 76.1879 157.116 83.5728L145.075 95.6136C144.223 96.4657 143.068 96.9444 141.863 96.9444L121.829 96.9444C120.047 96.9444 119.155 94.7906 120.415 93.5309L137.059 76.887Z" fill="#111111"/>
<path d="M123.687 137.059C127.38 140.752 133.366 140.752 137.059 137.059C140.751 133.367 140.751 127.38 137.059 123.688L120.415 107.044C119.155 105.784 120.048 103.63 121.829 103.63L141.863 103.63C143.068 103.63 144.223 104.109 145.075 104.961L157.116 117.002C164.501 124.387 164.501 136.36 157.116 143.745L143.745 157.116C136.36 164.501 124.386 164.501 117.002 157.116L104.961 145.076C104.109 144.224 103.63 143.068 103.63 141.863L103.63 121.829C103.63 120.048 105.784 119.156 107.044 120.415L123.687 137.059Z" fill="#111111"/>
</g>
<defs>
<clipPath id="clip0_75_2091">
<rect width="200" height="200" rx="32" fill="white"/>
</clipPath>
</defs>
</svg>
