<svg xmlns="http://www.w3.org/2000/svg" width="180" height="180" viewBox="0 0 180 180" fill="none">
  <style>
    :root {
      --primary-fill: #fff;
      --secondary-fill: #000;
    }
    @media (prefers-color-scheme: dark) {
      :root {
        --primary-fill: #000;
        --secondary-fill: #fff;
      }
    }
  </style>
  <rect width="180" height="180" rx="90" fill="var(--primary-fill)"/>
  <path
    d="M63.5 69.5C63.5 63.149 68.649 58 75 58H90C96.351 58 101.5 63.149 101.5 69.5V73H88.5V70.75C88.5 68.679 86.821 67 84.75 67H80.25C78.179 67 76.5 68.679 76.5 70.75V109.25C76.5 111.321 78.179 113 80.25 113H84.75C86.821 113 88.5 111.321 88.5 109.25V107H101.5V110.5C101.5 116.851 96.351 122 90 122H75C68.649 122 63.5 116.851 63.5 110.5V69.5Z"
    fill="var(--secondary-fill)"
  />
  <path
    d="M116.5 72.5C110.149 72.5 105 77.649 105 84V96C105 102.351 110.149 107.5 116.5 107.5H119.25C121.321 107.5 123 109.179 123 111.25C123 113.321 121.321 115 119.25 115H110.75C108.679 115 107 113.321 107 111.25V110H94V110.5C94 116.851 99.149 122 105.5 122H122C128.351 122 133.5 116.851 133.5 110.5V107C133.5 100.649 128.351 95.5 122 95.5H119.25C117.179 95.5 115.5 93.821 115.5 91.75V80.75C115.5 78.679 117.179 77 119.25 77H122.75C124.821 77 126.5 78.679 126.5 80.75V82H139.5V79.5C139.5 73.149 134.351 68 128 68H116.5V72.5Z"
    fill="var(--secondary-fill)"
  />
  <path
    d="M88.5 84H118"
    stroke="var(--secondary-fill)"
    stroke-width="9"
    stroke-linecap="round"
  />
  <path
    d="M88.5 96H118"
    stroke="var(--secondary-fill)"
    stroke-width="9"
    stroke-linecap="round"
  />
</svg>
