<?xml version="1.0" standalone="no"?>
<!DOCTYPE svg PUBLIC "-//W3C//DTD SVG 1.1//EN" "http://www.w3.org/Graphics/SVG/1.1/DTD/svg11.dtd">
<svg
  t="1778249149365"
  class="icon"
  viewBox="0 0 1024 1024"
  version="1.1"
  xmlns="http://www.w3.org/2000/svg"
  p-id="14349"
  xmlns:xlink="http://www.w3.org/1999/xlink"
  width="200"
  height="200"
>
  <rect x="0" y="0" width="1024" height="1024" rx="176" ry="176" fill="#000000"></rect>
  <g transform="matrix(0.72 0 0 0.72 169 143)">
    <path
      d="M720.780738 352.698489C637.918033 60.095061 432.673239 0 432.673239 0c24.207622 151.133639-88.286621 315.979063-196.172934 439.513133-4.015937-60.095061-7.999875-102.206403-42.127342-159.453509-7.311886 109.022297-97.598475 198.636896-121.854096 307.995188C39.831378 736.61249 97.174482 845.170794 316.227059 959.985c-68.974922-133.14992-32.255496-209.596725 20.623678-281.291605a435.84919 435.84919 0 0 0 73.134857-156.79755s45.199294 55.05514 27.279574 141.053796c80.462743-83.470696 95.086514-215.804628 83.310698-266.699832 181.917158 118.158154 259.451946 374.026156 154.621584 563.527194 556.7913-292.795425 138.381838-731.028578 65.758973-780.707801 24.143623 49.727223 28.639553 133.14992-20.175685 173.629287z"
      fill="#93c5fd"
      p-id="14350"
    ></path>
    <path
      d="M537.871596 630.966141c127.998 63.999 45.087296 171.197325 45.087295 209.964719 27.743567-28.687552 45.615287-79.198763 45.615288-79.198762 18.287714 26.86358 27.199575 57.903095 27.199575 96.670489 0 87.806628-52.607178 165.597413-137.485852 165.597413s-150.093655-50.431212-150.093655-138.25384c0.016-170.557335 169.677349-190.781019 169.677349-254.780019z"
      fill="#a5f3fc"
      p-id="14351"
    ></path>
  </g>
</svg>
